<svg
    xmlns="http://www.w3.org/2000/svg"
    viewBox="0 0 89 89"
    id="vector">
    <g id="group_1">
        <path
            id="path"
            d="M 61.87 55 L 56.85 52.1 L 43.73 52.1 L 38.71 55 C 43.52 63.35 57.88 77.02 73.45 78.2 C 68.02 75.17 59.39 64.25 61.87 55 Z"
            fill="#1973be"
            stroke-width="1"/>
        <path
            id="path_1"
            d="M 51.11 39.32 L 51.01 39.15 L 51.11 39.32 Z M 65.41 11.89 C 65.49 18.11 60.35 31.04 51.1 33.52 L 51.1 39.32 L 57.66 50.68 L 62.68 53.58 C 67.52 45.24 72.18 25.96 65.41 11.89 Z"
            fill="#faa519"
            stroke-width="1"/>
        <path
            id="path_2"
            d="M 12 52 C 17.34 48.82 31.11 46.8 37.88 53.57 L 42.9 50.67 L 42.8 50.84 L 49.46 39.31 L 49.46 33.51 C 39.83 33.51 20.81 39.11 12 52 Z"
            fill="#69cd28"
            stroke-width="1"/>
        <path
            id="path_3"
            d="M 47.21 47.37 C 47.21 45.67 48.59 44.3 50.29 44.3 C 51.99 44.3 53.36 45.68 53.36 47.37 C 53.36 49.07 51.98 50.45 50.29 50.45 C 48.59 50.44 47.21 49.06 47.21 47.37 Z"
            fill="#1973be"
            stroke-width="1"/>
    </g>
</svg>
